<svg width="336" height="327" xmlns="http://www.w3.org/2000/svg" version="1.1">
 <defs id="defs953">
  <linearGradient y2="-1.48321" x2="0.47031" y1="1.03451" x1="0.50784" id="SVGID_1_">
   <stop stop-color="#589632" id="stop932" offset="0"/>
   <stop stop-color="#93B023" id="stop934" offset="1"/>
  </linearGradient>
  <linearGradient y2="0.02886" x2="0.49328" y1="1.04808" x1="0.5079" id="SVGID_2_">
   <stop stop-color="#589632" id="stop941" offset="0"/>
   <stop stop-color="#93B023" id="stop943" offset="1"/>
  </linearGradient>
 </defs>
 <g>
  <title>Layer 1</title>
  <polygon id="polygon930" points="188.95188903808594,137.0279999623108 139.54901123046875,137.0279999623108 139.54901123046875,183.93795784805297 180.9683074951172,224.8446808705139 180.9683074951172,175.8585968861389 228.28468322753906,175.8585968861389 " fill="#ee7913"/>
  <polygon id="polygon937" points="201.67796325683594,196.56825264785766 201.67796325683594,244.2211457142639 280.711181640625,323.41485604141235 331.11328125,323.41485604141235 331.11328125,277.93646248672485 247.9510955810547,196.56825264785766 " fill="url(#SVGID_1_)"/>
  <polygon id="polygon939" points="228.28468322753906,175.8585968861389 180.9683074951172,175.8585968861389 180.9683074951172,224.8446808705139 201.67796325683594,244.2211457142639 201.67796325683594,196.56825264785766 247.9510955810547,196.56825264785766 " fill="#f0e64a"/>
  <path stroke-width="2.58871" id="path946" d="m181.77082,258.50823c-3.01585,0.62647 -4.57943,0.40643 -12.1281,0.40643c-54.01595,0 -99.95513,-44.41703 -99.95513,-102.01057c0,-57.59353 45.43439,-101.02944 99.95513,-101.02944c54.52076,0 97.93854,43.43849 97.93854,101.02944c0,9.36853 -1.16751,18.37723 -3.3239,26.91737l49.99569,49.99052c12.88916,-22.58906 20.1013,-48.84631 20.1013,-77.29101c0,-88.76416 -70.83478,-155.22661 -165.71863,-155.22661c-94.45155,-0.00259 -165.28632,66.02237 -165.28632,155.22401c0,89.63397 70.83477,156.97399 165.28373,156.97399c24.37785,0 41.59792,-3.80281 59.64898,-9.73613l-46.51129,-45.248z" fill="url(#SVGID_2_)"/>
  <polygon id="polygon948" points="331.11328125,277.93646248672485 331.11328125,323.41485604141235 140.7657012939453,137.0279999623108 188.95188903808594,137.0279999623108 " enable-background="new    " fill="#ffffff" opacity="0.15"/>
  <g>
   <path fill="#025A92" d="m70.6939,254.80422c-0.0314,-0.0331 -0.0635,-0.0663 -0.0948,-0.0991c0.1286,-0.2826 0.3703,-0.5831 0.669,-0.7349c0.2081,0.0688 0.4159,0.1379 0.6241,0.2064c0.0869,0.0909 0.1735,0.181 0.2602,0.2716c0.0074,0.0402 0.0146,0.0809 0.022,0.1215c-0.4654,0.3849 -1.0143,0.2096 -1.4805,0.2345zm0.2595,1.4567c-0.0086,0.0079 -0.0164,0.0157 -0.0246,0.0235c-0.7396,-0.1186 -1.5476,-0.87 -2.2512,-1.0635c0.4951,-0.3732 0.9392,-0.0816 1.4253,0.0542c0.283,0.3289 0.5667,0.6572 0.8505,0.9858zm0.2705,-2.4857c-0.1408,-0.2124 -0.2816,-0.4248 -0.4224,-0.6376c-0.2181,0.0249 -0.4056,0.0182 -0.6316,0.1319c-0.0559,-0.0093 -0.1126,-0.0186 -0.1682,-0.0282c0.1052,-0.2145 0.4013,-0.3635 0.5439,-0.5685c-0.0385,-0.1058 -0.0759,-0.2113 -0.1141,-0.3172c-0.8069,0.0816 -1.8483,0.7906 -1.3911,1.7119c0.0635,0.0495 0.1269,0.0994 0.1907,0.1497c0.246,-0.1486 0.3857,-0.4854 0.6416,-0.6159c0.1707,-0.0866 0.3903,-0.0738 0.6337,-0.2281c0.0242,0.0089 0.0481,0.0171 0.0724,0.026c-0.1415,0.1982 -0.283,0.3967 -0.4238,0.5956c-0.0606,0.2409 0.0755,0.4933 0.0078,0.7495c-0.0741,0.0065 -2.2098,-0.7303 -2.377,-0.7998c-0.2416,-0.0057 -0.4836,-0.0107 -0.7253,-0.016c-0.0075,-0.0078 -0.016,-0.0164 -0.0235,-0.0242c0.2096,-0.1504 0.3504,-0.1979 0.5161,-0.4003c-0.0079,-0.0242 -0.015,-0.0488 -0.0225,-0.0731c-0.6337,-0.0103 -1.2321,0.3771 -1.8733,0.5165c-0.3244,0.3657 -0.3671,0.7 -0.2894,1.0821c0.0638,0.0495 0.1272,0.0994 0.1907,0.1493c0.3029,-0.2277 0.6062,-0.4551 0.9095,-0.6822c0.5689,-0.3076 1.5687,-0.1318 2.1211,0.3354c-0.0082,0.0079 -0.0164,0.0154 -0.0249,0.0239c-0.4463,0.1087 -0.7681,-0.01 -1.2407,0.3361c-0.0179,0.0959 -0.0364,0.1925 -0.0542,0.2891c0.0207,0.1746 -0.015,0.221 0.16,0.4145c0.6722,-0.2067 1.2136,-0.339 1.8602,0.1119c-0.0082,0.0078 -0.0164,0.0164 -0.0246,0.0235c-0.0806,-0.0014 -0.1615,-0.0032 -0.2417,-0.005c-0.0791,-0.0659 -0.1582,-0.1322 -0.2377,-0.1985c-0.1704,0.1839 -0.1461,0.1786 -0.3415,0.1383c-0.0249,0.0232 -0.0495,0.0471 -0.0744,0.0709c0.0338,0.138 0.0566,0.2093 0.2106,0.3671c-0.0421,0.0713 -0.0845,0.1437 -0.1258,0.2153c-0.7325,-0.3133 -1.3227,-0.6561 -2.0783,-1.2296c-0.0567,0.0067 -0.113,0.0139 -0.1693,0.0206c-0.0414,0.0396 -0.0827,0.0788 -0.1233,0.118c0.2373,1.7775 0.9887,0.7745 1.9703,1.7108c-0.3201,0.2756 -0.6405,0.5511 -0.961,0.8259c-0.4565,-0.0446 -1.2075,-0.812 -1.6541,-0.6879c-0.0321,0.0157 -0.0645,0.031 -0.0977,0.0467c0.1533,0.448 0.5614,0.9381 0.7685,1.3946c0.7499,0.2627 1.57,-0.5652 2.3249,-1.2809c0.1971,0.222 0.3939,0.4441 0.591,0.6654c0.3703,-0.1896 0.3913,-0.4772 0.4263,-0.7406c-0.1369,-0.2331 -0.3133,-0.3957 -0.5429,-0.6159c0.0581,-0.0713 0.1162,-0.143 0.1743,-0.2139c0.2941,0.0068 0.627,0.0581 0.9214,-0.1258c0.3243,0.2588 0.6134,0.6323 0.8507,0.9374c0.2203,-0.0474 0.5632,-0.1968 0.7111,-0.4448c0.1529,-0.4185 -0.3415,-1.0697 -0.767,-1.4913c0.0007,-0.016 0.0007,-0.0324 0.0014,-0.0481c0.0164,-0.0161 0.0332,-0.0317 0.0488,-0.0478c0.5953,-0.0035 0.9192,0.2385 1.5519,-0.1607c0.2862,-1.3637 -0.4837,-1.0237 -1.1776,-1.476z" clip-rule="evenodd" fill-rule="evenodd"/>
   <path fill="#025A92" d="m61.7844,246.64862c0.6729,0.65974 0.1817,1.00297 0.1593,1.77106c-0.0139,0.45693 0.551,0.44481 0.1322,1.24714c-0.6191,0.35 -1.497,-0.098 -2.0263,0.4049c0.895,0.5428 1.4917,1.8366 1.1741,2.6585c-0.2245,0.581 -1.1933,1.1078 -1.4246,0.5781c-0.5621,-1.1024 1.2692,-1.7411 0.0862,-3.1368c-0.1179,0.0167 -0.119,-0.0061 -0.2363,0.0549c-0.5973,0.3329 -0.8326,1.1302 -1.4527,1.2695c-0.4723,-0.3004 -0.4919,-0.582 -0.6234,-0.9473c0.2381,-0.3618 1.2339,-1.1638 1.2475,-1.34695c0.0235,-0.31401 -0.6555,-0.7991 -0.7008,-1.14768c0.015,-0.02388 0.0303,-0.04776 0.0453,-0.07271c0.5289,-0.00784 1.1986,0.33076 1.7482,0.283c0.6715,-0.05845 1.2946,-1.16372 1.8713,-1.61566z" clip-rule="evenodd" fill-rule="evenodd"/>
   <path fill="#025A92" d="m48.9386,247.33795c0.2819,-0.3222 1.0172,-0.80658 1.0981,-1.14054c0.211,0.05239 0.422,0.10478 0.6326,0.15718c-0.1479,0.4277 -0.6123,0.81478 -0.4982,1.29096c0.0378,0.12902 0.0798,0.14328 0.1914,0.22454c0.2038,-0.11477 0.428,-0.2552 0.7235,-0.20886c-0.1297,0.33361 -0.2602,0.66615 -0.3903,0.99941c-0.6547,-0.46371 -0.7175,-1.08281 -1.7571,-1.32269zm-1.4974,1.60782c-0.0028,0.01105 -0.0053,0.0221 -0.0082,0.03279c-0.1194,-0.04134 -0.2388,-0.0834 -0.3582,-0.12403c0.0143,-0.10301 0.0278,-0.20566 0.0417,-0.30866c0.1023,-0.0802 0.205,-0.16075 0.308,-0.24094c0.0413,0.02174 0.083,0.04419 0.1247,0.06594c-0.036,0.19175 -0.072,0.38315 -0.108,0.5749zm3.5047,-0.01069c0.278,-0.34038 0.4673,-0.80587 0.6733,-1.28205c-0.1322,-0.28834 -0.3429,-0.49828 -0.7246,-0.64049c0.2417,-0.60983 0.8857,-0.85434 1.3059,-1.26601c0.0275,-0.29654 -0.1489,-0.43127 -0.15,-0.67435c0.0834,-0.28585 0.1664,-0.5717 0.2491,-0.85755c-0.0221,-0.24094 -0.0449,-0.48295 -0.0666,-0.72389c-0.1198,-0.12439 -0.1986,-0.21314 -0.4249,-0.28264c-0.0499,0.01069 -0.0998,0.0221 -0.15,0.03315c-0.1522,0.37638 -0.0072,0.66722 -0.0075,1.02364c-0.0018,1.11203 -0.9477,1.2464 -1.806,1.14197c-0.0923,0.32862 -0.1148,0.52537 -0.0406,0.73209c-0.2556,0.0777 -0.5108,0.1554 -0.766,0.23346c0.0877,-0.27302 0.2096,-0.32007 0.4908,-0.26625c0.1925,-0.34644 -0.0335,-0.51111 -0.0086,-0.8162c0.0653,-0.80908 1.2853,-1.52941 -0.2259,-2.0726c-0.0143,0.00892 -0.0275,0.01676 -0.0421,0.02531c-0.1005,0.2666 0.0214,0.41773 0.0007,0.7075c-0.1632,0.4662 -0.3265,0.93204 -0.49,1.3986c-0.7553,0.19567 -1.8862,0.14435 -2.5969,0.48437c-0.0196,0.03066 -0.0389,0.06095 -0.0581,0.0916c0.0645,0.35999 1.0311,0.78627 1.5486,0.73993c0.2107,-0.0891 0.4217,-0.17821 0.6323,-0.2666c0.0111,0.0025 0.0221,0.00535 0.0335,0.0082c-0.3742,1.43745 -1.4342,1.2293 -1.9881,2.29821c0.0556,0.15575 0.1108,0.31115 0.1664,0.46655c0.2278,-0.0139 0.4552,-0.02816 0.6829,-0.04241c0.3807,0.1793 0.4089,0.5339 0.8911,0.6818c0.2199,-0.2373 0.1818,-0.76128 0.2156,-1.14871c0.0424,-0.48652 0.2845,-0.81871 0.4484,-1.0903c0.9217,0.31258 1.0675,0.8408 1.6242,1.28918c-0.3329,0.96413 -1.6965,-0.02816 -2.1221,0.70893c1.3098,0.6088 1.0703,0.1921 2.131,-0.0346c0.0831,-0.0502 0.1661,-0.0998 0.2495,-0.1504c0.6355,0.8151 0.5817,1.6117 2.2908,1.5971c0.0356,-0.0495 0.0716,-0.1001 0.1076,-0.1497c-0.3575,-0.8479 -1.6146,-1.1131 -2.0737,-1.89684z" clip-rule="evenodd" fill-rule="evenodd"/>
   <path fill="#025A92" d="m38.458,246.08833c-0.3104,0.13081 -0.3981,0.35214 -0.649,0.52358c0.0153,-0.53249 0.3158,-0.58952 0.3518,-0.87644c0.0331,-0.26731 -0.2374,-0.51111 -0.1569,-0.8187c0.0635,-0.11299 0.1686,-0.10728 0.2328,-0.21955c0.1205,-0.23703 -0.3301,-0.91993 -0.5628,-0.99834c-0.0649,-0.00321 -0.1294,-0.00677 -0.1946,-0.00998c-0.8333,1.10597 -1.8948,1.26244 -2.4914,2.72627c0.854,-0.41096 1.1641,-1.31057 2.3417,-1.48699c-0.0577,0.88107 -1.2596,1.63241 -1.9632,1.99097c-0.3732,0.19068 -0.5171,0.07271 -0.695,0.40026c0.0378,0.24664 0.1176,0.35749 0.3044,0.4163c0.5417,0.16395 1.6527,-0.27302 1.7643,-0.61732c0.0388,-0.03671 0.0777,-0.07307 0.1165,-0.10943c0.0107,-0.00142 0.021,-0.00249 0.0317,-0.00391c-0.1497,0.57455 -0.2994,1.14945 -0.4491,1.72365c0.1223,0.16645 0.2577,0.23132 0.4242,0.33824c0.0424,-0.00463 0.0848,-0.00926 0.1272,-0.0139c0.1312,-0.26161 0.2627,-0.52322 0.3942,-0.78484l0.0599,-0.03849c0.0381,0.24201 0.0759,0.48438 0.1141,0.72674c0.0905,0.04349 0.1814,0.08661 0.2723,0.1301c0.0855,0.00142 0.1718,0.00214 0.2573,0.00356c-0.0948,-0.46121 -0.1896,-0.92277 -0.2844,-1.38363c0.2181,-0.53998 0.4359,-1.07924 0.654,-1.61815zm2.814,-0.15683c-0.0596,-0.44339 -0.3796,-0.5635 -0.8594,-0.48224c-0.1276,-0.988 0.2595,-3.15896 -1.1729,-2.69882c-0.0988,0.37317 0.8939,2.35809 0.6016,3.05275c0,0 -0.9574,0.68825 -1.0119,0.72568c0.1137,-0.53428 0.5717,-0.70786 0.7396,-1.14554c0.1265,-0.35892 -0.5714,-0.26803 -0.7317,-0.49614c0.1101,-0.28443 0.335,-0.5218 0.6697,-0.62231c0.005,-0.05454 0.0096,-0.10871 0.0139,-0.16289c-0.0143,-0.03029 -0.0285,-0.06095 -0.0424,-0.0916c-0.3825,-0.1832 -0.7642,-0.15718 -1.1862,0.03707c0.0499,0.20637 0.0763,0.24771 0.2862,0.25769c-0.0089,0.30118 -0.0178,0.60235 -0.0267,0.90353c0.1322,0.12475 0.2641,0.24914 0.3959,0.37389c-0.2074,0.39063 -1.1369,1.31341 -0.6814,1.94285c0.0794,0.12974 0.134,0.14863 0.279,0.19389c0.4798,-0.46513 0.6794,-0.98194 1.3641,-1.31198c0.011,-0.00107 0.0214,-0.0025 0.032,-0.00357c0.1373,1.27278 -0.011,3.32616 0.6355,4.20686c0.0642,0.0559 0.0407,0.0274 0.1939,0.011c-0.0459,-1.37932 -0.1311,-2.95256 -0.3179,-4.53329c0.283,-0.02531 0.5895,-0.03101 0.7553,-0.1497c0.021,-0.00249 0.042,-0.00463 0.0638,-0.00713z" clip-rule="evenodd" fill-rule="evenodd"/>
   <path fill="#025A92" d="m28.6453,249.95872c-0.0464,0.0061 -0.0931,0.0125 -0.139,0.0182c-0.0357,0.0025 -0.0717,0.0039 -0.1073,0.0057c-0.0104,-0.0567 -0.0207,-0.1133 -0.031,-0.17c0.1946,-0.2474 0.3881,-0.4951 0.5824,-0.7428c0.0634,-0.02495 0.1265,-0.0499 0.1892,-0.0752c0.0043,0.01069 0.0086,0.02103 0.0129,0.03207c-0.1693,0.31043 -0.3383,0.62123 -0.5072,0.93203zm1.3159,0.6473c-0.031,-0.0485 -0.062,-0.097 -0.0934,-0.1458l0.2588,-0.1754c-0.0396,-0.1304 -0.0788,-0.2609 -0.1184,-0.3917c-0.1122,-0.0288 -0.2235,-0.0156 -0.366,-0.001c-0.0125,-0.0314 -0.025,-0.0631 -0.0378,-0.0948c0.1732,-0.3522 0.6555,-0.70504 0.7791,-1.07644c-0.0099,-0.05667 -0.0206,-0.11369 -0.031,-0.17037c-0.8237,-0.772 -1.6516,0.10087 -2.3174,0.69966l-0.0314,0.01245c0.0567,-0.75381 1.3259,-1.91681 2.3527,-1.99273c0.0913,-0.15255 0.0973,-0.2887 0.102,-0.47903c-0.9428,-0.67506 -0.7927,0.07093 -1.6403,0.10194c-0.3985,-0.1112 -0.9484,-0.92064 -1.4036,-1.05109c-0.0673,0.01426 -0.1347,0.02887 -0.202,0.04313c-0.2962,0.41915 0.5185,1.21611 0.3728,1.86266c-0.818,0.53427 -1.0369,1.07889 -1.5882,1.61632c-0.226,0.2203 -0.6227,0.2645 -0.8783,0.4581c-0.0167,0.0798 -0.0338,0.1596 -0.0513,0.2395c0.9438,1.9785 2.0555,-1.47776 3.0905,-1.88337c0.015,0.00606 0.0296,0.01284 0.0446,0.01925c-0.1829,0.62837 -0.6722,1.14942 -0.5172,1.92222c0.0481,0.2619 0.6897,0.7349 0.9314,0.8732c-0.2809,0.5649 -0.704,0.9951 -0.4156,1.8099c0.2794,0.1205 0.5588,0.2409 0.8379,0.3618c0.1116,-0.0702 0.1394,-0.0934 0.1836,-0.1825c0.1454,-0.2253 -0.1401,-0.9078 -0.0973,-1.1673c0.0271,-0.0228 0.0549,-0.0463 0.0819,-0.0688c0.1537,0.128 0.1811,0.417 0.3262,0.6377c0.1718,0.2609 0.4341,0.3945 0.6547,0.5449c0.0314,-0.0125 0.0631,-0.0253 0.0948,-0.0378c0.0852,-0.5563 -0.489,-1.3262 -0.5496,-1.9385c0.1012,-0.0521 0.2025,-0.1045 0.3033,-0.1569c0.0111,-0.0042 0.0214,-0.0082 0.0318,-0.0121c0.6012,0.4338 0.2527,1.0344 1.1444,1.2272c0.1433,-0.1301 0.2869,-0.2602 0.4302,-0.3899c-0.2833,-0.7582 -0.9833,-1.2393 -1.6819,-1.0144z" clip-rule="evenodd" fill-rule="evenodd"/>
   <path fill="#025A92" d="m19.2923,251.60432c1.1231,-0.7406 1.2222,0.3461 2.0445,0.7421c0.2691,-0.1262 0.5129,-0.1433 0.7691,-0.0531c0.0236,0.0271 0.0474,0.0541 0.071,0.0812c-0.0211,0.8095 -0.3351,1.4147 0.6233,2.2334c0.5963,-0.6109 0.9652,-0.7656 1.5697,-0.6145c0.0268,0.1208 0.0528,0.2417 0.0791,0.3621c-0.345,0.4798 -0.6903,0.9599 -1.0354,1.4393c-0.3781,0.6091 -0.4551,1.2681 -0.7802,1.838c-0.0552,-0.0631 -0.1108,-0.1258 -0.1664,-0.1892c-0.169,-0.669 0.1771,-1.2133 0.3735,-1.8638c-0.4423,-0.1996 -0.8304,-0.608 -1.2799,-1.127c-0.3008,0.1618 -0.5093,0.1037 -0.839,0.3543c-0.5011,1.2895 0.268,2.707 0.0257,4.0069c-0.2863,0.2352 -0.4637,0.1853 -0.7279,0.2089c-0.6212,-0.7211 -0.4433,-1.358 -0.9648,-2.0769c-0.3486,0.2192 -0.7984,0.2538 -1.1338,0.1832c-0.1978,-0.2135 -0.2056,-0.2901 -0.2249,-0.4737c0.1911,-0.2003 0.3825,-0.4006 0.5739,-0.6013c-0.4295,-0.8589 -1.3206,-0.8647 -1.62,-1.4043c0.01,-0.0242 0.02,-0.0495 0.0303,-0.0741c0.5389,-0.2627 1.3252,-0.5617 1.8249,-0.2156c0.1946,0.2758 0.3903,0.5521 0.5853,0.8283c0.1885,0.1055 0.3774,0.2106 0.5663,0.3165c0.0752,0.2851 0.1508,0.5706 0.2263,0.8565c0.2784,-0.4759 0.185,-1.0647 0.3033,-1.5629c0.1914,-0.4719 0.3832,-0.9449 0.575,-1.4175c-0.3871,-0.5942 -1.3306,-1.163 -1.4689,-1.7768z" clip-rule="evenodd" fill-rule="evenodd"/>
   <path fill="#025A92" d="m0,283.26102c0,-24.2848 19.7155,-44.0001 44.0003,-44.0001c24.2851,0 44.0004,19.7153 44.0004,44.0001c0,24.2845 -19.7153,43.9999 -44.0004,43.9999c-24.2847,0 -44.0003,-19.7154 -44.0003,-43.9999zm44.0003,-41.87832c-23.1129,0 -41.87852,18.76542 -41.87852,41.87832c0,23.1127 18.76562,41.8781 41.87852,41.8781c23.1133,0 41.8786,-18.7654 41.8786,-41.8781c0,-23.1129 -18.7653,-41.87832 -41.8786,-41.87832z" clip-rule="evenodd" fill-rule="evenodd"/>
   <path fill="#025A92" d="m11.2154,283.26102c0,-18.0944 14.6903,-32.7842 32.7849,-32.7842c18.0947,0 32.7849,14.6898 32.7849,32.7842c0,18.0944 -14.6902,32.7844 -32.7849,32.7844c-18.0946,0 -32.7849,-14.69 -32.7849,-32.7844zm32.7849,-31.7738c-17.5366,0 -31.7744,14.2374 -31.7744,31.7738c0,17.5363 14.2378,31.7739 31.7744,31.7739c17.5367,0 31.7744,-14.2376 31.7744,-31.7739c0,-17.5364 -14.2377,-31.7738 -31.7744,-31.7738z" clip-rule="evenodd" fill-rule="evenodd"/>
   <path fill="#025A92" d="m35.1307,318.58682l-0.2314,0.8737l-0.8746,-0.2318l0.2317,-0.8736l0.8743,0.2317z" clip-rule="evenodd" fill-rule="evenodd"/>
   <path fill="#025A92" d="m37.9887,321.97702l-0.8907,-0.1571l0.5927,-3.3572c-0.3792,0.247 -0.8023,0.4039 -1.2696,0.4719l0.1426,-0.8083c0.2456,-0.0346 0.5243,-0.1348 0.8344,-0.2987c0.3097,-0.1643 0.5403,-0.3789 0.6922,-0.6441l0.7228,0.1273l-0.8244,4.6662z" clip-rule="evenodd" fill-rule="evenodd"/>
   <path fill="#025A92" d="m42.0928,319.32342c0.0196,-0.2908 -0.0318,-0.5214 -0.1547,-0.6911c-0.123,-0.1697 -0.272,-0.2609 -0.4477,-0.2727c-0.1668,-0.0114 -0.3101,0.0449 -0.4295,0.1693c-0.1187,0.1241 -0.1885,0.3358 -0.2092,0.6359c-0.0207,0.3037 0.0239,0.5311 0.1347,0.6818c0.1098,0.1508 0.2549,0.2321 0.4349,0.2438c0.1732,0.0121 0.3239,-0.0467 0.4519,-0.1753c0.1283,-0.1287 0.2017,-0.3262 0.2196,-0.5917zm-2.1771,1.8327l0.8804,-0.0367c0.0093,0.1789 0.0556,0.3144 0.1397,0.4063c0.0845,0.0916 0.2,0.1426 0.3479,0.1526c0.186,0.0128 0.3503,-0.062 0.4929,-0.2242c0.1422,-0.1629 0.2499,-0.5122 0.3229,-1.0497c-0.2445,0.2481 -0.5375,0.3607 -0.8775,0.3372c-0.3707,-0.0253 -0.6804,-0.19 -0.9299,-0.494c-0.2488,-0.304 -0.3578,-0.685 -0.3268,-1.1434c0.0328,-0.4776 0.201,-0.8526 0.5047,-1.1252c0.3033,-0.273 0.6743,-0.3946 1.1134,-0.3646c0.4776,0.0324 0.8565,0.2441 1.1374,0.634c0.2808,0.39 0.3928,1.0083 0.3354,1.8541c-0.0585,0.8604 -0.2609,1.4706 -0.6059,1.8296c-0.3447,0.3592 -0.7735,0.5214 -1.2849,0.4868c-0.3682,-0.0253 -0.6594,-0.1436 -0.8726,-0.355c-0.2135,-0.2113 -0.3393,-0.5139 -0.3771,-0.9078z" clip-rule="evenodd" fill-rule="evenodd"/>
   <path fill="#025A92" d="m43.9429,321.25732l0.8967,-0.128c0.0335,0.2025 0.1162,0.3607 0.2474,0.4751c0.1308,0.1137 0.2794,0.1676 0.4441,0.1615c0.1889,-0.0075 0.3457,-0.0902 0.4701,-0.2488c0.1251,-0.1582 0.1818,-0.3917 0.1697,-0.7004c-0.0114,-0.2897 -0.0845,-0.5039 -0.2199,-0.644c-0.1358,-0.1401 -0.3073,-0.2057 -0.5154,-0.1978c-0.2591,0.0107 -0.4873,0.134 -0.684,0.3714l-0.7378,-0.0774l0.3678,-2.4721l2.3898,-0.093l0.0328,0.8461l-1.7047,0.0663l-0.1102,0.8062c0.1975,-0.1087 0.4014,-0.1671 0.6117,-0.1753c0.4006,-0.0157 0.7463,0.1172 1.0364,0.3981c0.2902,0.2809 0.4441,0.654 0.4623,1.1188c0.0153,0.3881 -0.0841,0.7389 -0.2972,1.0522c-0.2909,0.428 -0.7079,0.6522 -1.2525,0.6736c-0.4356,0.0171 -0.7952,-0.0859 -1.0785,-0.309c-0.2838,-0.2231 -0.4602,-0.5307 -0.5286,-0.9235z" clip-rule="evenodd" fill-rule="evenodd"/>
   <path fill="#025A92" d="m51.0304,320.97812l0.1223,0.8312l-3.1369,0.4598c-0.0128,-0.319 0.046,-0.6316 0.1743,-0.9381c0.129,-0.3062 0.4095,-0.7285 0.8426,-1.2667c0.3482,-0.4352 0.5578,-0.7264 0.6298,-0.8732c0.0962,-0.2029 0.1311,-0.3943 0.1044,-0.575c-0.0292,-0.1996 -0.1055,-0.345 -0.2288,-0.4366c-0.1226,-0.0912 -0.2787,-0.1233 -0.4676,-0.0959c-0.1868,0.0275 -0.3272,0.1059 -0.421,0.2342c-0.0934,0.129 -0.1301,0.3247 -0.1087,0.5888l-0.9049,0.0417c-0.0193,-0.5007 0.0958,-0.8786 0.3446,-1.1341c0.2488,-0.2556 0.5831,-0.4142 1.0037,-0.4755c0.4605,-0.0677 0.8412,0.0036 1.1406,0.2132c0.2993,0.2099 0.4768,0.4993 0.5307,0.8686c0.0306,0.2103 0.0228,0.4163 -0.025,0.6173c-0.0474,0.201 -0.1376,0.4177 -0.2709,0.6494c-0.088,0.1543 -0.2544,0.381 -0.4982,0.6815c-0.2449,0.3004 -0.3982,0.4986 -0.4612,0.5948c-0.0628,0.0959 -0.112,0.1875 -0.1469,0.2748l1.7771,-0.2602z" clip-rule="evenodd" fill-rule="evenodd"/>
   <path fill="#025A92" d="m52.7641,318.62092l0.2074,0.8803l-0.8807,0.2075l-0.2074,-0.8803l0.8807,-0.2075z" clip-rule="evenodd" fill-rule="evenodd"/>
   <path fill="#025A92" d="m28.5946,281.68382c-0.1936,0 -0.2898,-0.1077 -0.2898,-0.3222c0.0381,-0.2502 0.154,-0.3764 0.3475,-0.3764c1.0041,-0.0357 1.796,0.0898 2.3752,0.3764c0.5015,0.2145 0.695,0.6447 0.5792,1.2899l0,0.2687c0.6173,-0.1076 1.0617,-0.2866 1.3323,-0.5375c0.4245,-0.4655 0.3275,-0.9491 -0.2898,-1.4513c-0.5022,-0.4299 -1.1783,-0.6452 -2.0273,-0.6452c-0.3864,-0.0712 -0.5991,-0.2687 -0.6373,-0.5909c0,-0.1789 0.1351,-0.2687 0.4056,-0.2687c1.0426,0.072 1.8919,0.3407 2.5488,0.8062c0.772,0.6447 1.1006,1.272 0.9848,1.8812c-0.3098,0.6811 -1.0048,1.1473 -2.0854,1.3975c-0.0777,0.036 -0.1736,0.0535 -0.2894,0.0535l0,0.6989c0.3475,0.036 0.772,0.2509 1.2741,0.6451c0.6174,0.4299 1.1388,1.0034 1.564,1.7198c0.0381,0.1436 -0.02,0.2512 -0.1736,0.3225c-0.1162,0.072 -0.2316,0.0538 -0.3475,-0.0538c-0.1939,-0.2862 -0.5603,-0.68 -1.1006,-1.1822c-0.4256,-0.3579 -0.8312,-0.5553 -1.2164,-0.5917l0,1.183c0.2694,0.1072 0.521,0.2869 0.7527,0.5374c0.4637,0.4659 0.849,1.0397 1.1587,1.7201c0.3857,0.6448 0.5592,1.2008 0.5215,1.6663c0,0.1433 -0.0581,0.2324 -0.174,0.2684c-0.0777,0.0353 -0.1736,-0.0182 -0.2897,-0.1611c-0.0389,-0.1073 -0.1355,-0.3226 -0.2895,-0.6451c-0.3097,-0.6452 -0.5795,-1.1641 -0.8108,-1.5587c-0.3479,-0.5374 -0.6376,-0.8415 -0.8689,-0.9138l0,1.344c0,1.3259 -0.0392,2.3285 -0.1162,3.0097c-0.0389,0.1429 -0.1155,0.2327 -0.2317,0.2687c-0.1158,0.0356 -0.2124,-0.0185 -0.2894,-0.1611c-0.0389,-0.2153 -0.0581,-1.2186 -0.0581,-3.0103l0,-1.5045c-0.3094,0.072 -0.5792,0.2331 -0.8109,0.4833c-0.3863,0.5379 -0.6572,1.0401 -0.8108,1.5052c-0.1547,0.3945 -0.3679,0.7709 -0.6373,1.1288c-0.1159,0.0723 -0.2317,0.0898 -0.3479,0.0538c-0.0777,-0.0353 -0.0966,-0.1073 -0.0577,-0.2149c0,-0.0353 0.0192,-0.1077 0.0577,-0.2153c0.1162,-0.4651 0.2121,-0.8059 0.2898,-1.0212c0.1928,-0.4298 0.5214,-1.0026 0.9848,-1.7197c0.4245,-0.5378 0.849,-0.8419 1.2745,-0.9142l0,-1.1288c-0.3097,0.0364 -0.6761,0.1975 -1.1006,0.484c-0.1158,0.0724 -0.3675,0.3226 -0.7531,0.7524c-0.2705,0.3226 -0.4634,0.5375 -0.5792,0.6451c-0.1162,0.1437 -0.2128,0.1971 -0.2898,0.1615c-0.0777,-0.0716 -0.0969,-0.1967 -0.0577,-0.3764c0.3856,-0.8237 0.8878,-1.4866 1.5059,-1.9888c0.3856,-0.3579 0.8301,-0.5375 1.3323,-0.5375l0,-0.5913c-1.3901,0.1436 -2.4141,0.0898 -3.0699,-0.1611c-0.1939,-0.1076 -0.2709,-0.2687 -0.232,-0.4837c0.077,-0.1429 0.232,-0.1967 0.4637,-0.1614c0.5792,0.1436 1.5059,0.1796 2.7804,0.1076l0.0578,0c0.0381,-0.6091 -0.097,-0.9491 -0.4053,-1.0215c-0.6184,-0.2149 -1.2368,-0.304 -1.8537,-0.2687z" clip-rule="evenodd" fill-rule="evenodd"/>
   <path fill="#025A92" d="m40.8057,283.40392c0,-0.1077 0.0189,-0.2502 0.0581,-0.4299l-1.2164,0l0,0.7521l0.695,0c0.3086,-0.1069 0.4633,-0.2146 0.4633,-0.3222zm-0.2894,-1.6663c-0.078,0 -0.2128,-0.0178 -0.4056,-0.0538l-0.4633,0l0,0.7524l1.2164,0l0,-0.1611c0,-0.3226 -0.1162,-0.5011 -0.3475,-0.5375zm0.0578,6.1276c0.2316,-0.0716 0.3664,-0.2327 0.4056,-0.484l-0.6373,0c-0.4637,-0.0349 -0.8308,-0.0535 -1.1007,-0.0535c-0.1158,0 -0.2705,0.0186 -0.4633,0.0535c-0.4256,0.0363 -0.715,0.0723 -0.869,0.1076c0.077,0.215 0.2317,0.3226 0.4634,0.3226c0.6562,0.1076 1.3904,0.1262 2.2013,0.0538zm-2.2013,-2.5801c-0.3475,0.072 -0.5414,0.2687 -0.5792,0.5913c0.4634,-0.0717 0.9267,-0.1073 1.3901,-0.1073c0.5014,-0.0356 1.1198,-0.0178 1.8537,0.0535c-0.0777,-0.2502 -0.2128,-0.4114 -0.4053,-0.4837c-0.7342,-0.1429 -1.4873,-0.1611 -2.2593,-0.0538zm-0.4634,-1.8812c0.1159,0.2153 0.3664,0.3222 0.7532,0.3222l0.2894,0c0.0381,-0.2502 0.0581,-0.4833 0.0581,-0.6986l-1.2165,0c0,0.144 0.0378,0.2687 0.1158,0.3764zm3.128,3.4398c0,-0.0713 0.0192,-0.1611 0.0577,-0.2687l0,-0.1611c-0.541,-0.1073 -1.1002,-0.143 -1.6794,-0.1073c-0.5414,0.036 -1.101,0.0898 -1.6802,0.1611l0.0581,0.4298c0.9267,-0.1073 2.0074,-0.1251 3.2438,-0.0538zm-3.3596,-4.6221l0,0.2146l1.3323,0c0,-0.2866 -0.02,-0.5375 -0.0581,-0.7524l-0.4053,0c-0.1939,0.036 -0.3475,0.0538 -0.4637,0.0538c-0.2705,0.1077 -0.4052,0.2688 -0.4052,0.484zm0.3475,2.5798c1.0037,-0.1789 1.9885,-0.1789 2.9544,0c0.3475,0.072 0.5403,0.2873 0.5791,0.6448c0.1159,0.7175 0.077,1.4699 -0.1158,2.2576c-0.0781,0.4661 -0.4444,0.7349 -1.1006,0.8062c0.077,0.86 0.3086,1.7561 0.695,2.6874c0.1158,0.1789 0.0959,0.3578 -0.0577,0.5378c-0.0781,0.0713 -0.1358,0.1073 -0.174,0.1073c-0.0777,0 -0.1358,-0.0538 -0.1736,-0.1611c-0.4255,-0.86 -0.7534,-1.9165 -0.9847,-3.1714l-0.4057,0c-0.0777,1.2899 -0.4056,2.3114 -0.9847,3.0638c-0.1547,0.1429 -0.2706,0.1967 -0.3476,0.1614c-0.078,-0.0723 -0.0969,-0.1974 -0.0581,-0.3763c0,-0.0724 0.0581,-0.2335 0.174,-0.4837c0.2317,-0.4662 0.3667,-0.8066 0.4052,-1.0212c0.077,-0.2502 0.154,-0.6629 0.2321,-1.2364l0,-0.1076c-0.5026,-0.035 -0.869,-0.2502 -1.101,-0.6448c-0.3475,-0.5015 -0.4833,-1.2004 -0.4053,-2.0961c0.077,-0.5731 0.3668,-0.8957 0.869,-0.9677zm-0.2898,-3.6013c0.772,-0.1429 1.7761,-0.1614 3.0121,-0.0538c0.4637,0.0724 0.6954,0.2513 0.6954,0.5375c0,0.0723 0.0189,0.1436 0.0577,0.2149c0.0382,0.144 0.0581,0.3229 0.0581,0.5375c0.1537,0.0364 0.3087,0.0542 0.4634,0.0542c0,-0.0717 0.0189,-0.1968 0.0581,-0.3764c0,-0.1789 0.0189,-0.3044 0.0577,-0.3764c0.077,-0.4302 -0.1547,-0.7164 -0.695,-0.86c-0.6954,-0.215 -1.4681,-0.3226 -2.3171,-0.3226c-1.0047,0 -1.8156,0.1436 -2.4329,0.4302c-0.1159,0.1076 -0.1551,0.2687 -0.1159,0.4837c0,0.1436 0.0189,0.3225 0.0578,0.5375l0,0.484l0.4056,0c0,-0.2506 0.0189,-0.484 0.0581,-0.699c0.0378,-0.3225 0.2505,-0.5189 0.6369,-0.5913zm1.6802,-1.935c0.1925,0.1437 0.2894,0.3411 0.2894,0.5913c0.0381,0.072 0.1158,0.1077 0.2317,0.1077c0.7331,0.072 1.4674,0.2145 2.2012,0.4298c0.3857,0.1436 0.5985,0.2869 0.6373,0.4302c0.1158,0.1796 0.1347,0.3946 0.0578,0.6448l0,0.1073c-0.2706,1.0036 -0.3476,2.4012 -0.2317,4.1929c0.077,1.111 0.3279,2.7772 0.7531,4.9985c0.0381,0.2502 -0.02,0.4113 -0.1736,0.484c-0.155,0.0349 -0.2709,-0.0542 -0.3478,-0.2688c-0.6569,-2.4365 -0.9267,-5.0704 -0.8109,-7.9015c-0.0389,0 -0.1158,-0.0174 -0.2317,-0.0538l-0.2317,0c-0.0388,0.3226 -0.1358,0.6273 -0.2897,0.9139c-0.1547,0.2869 -0.4445,0.4123 -0.869,0.376l-1.9696,0c-0.3863,0.0727 -0.6761,-0.0535 -0.8689,-0.376c-0.1936,-0.2502 -0.3283,-0.5375 -0.4053,-0.8601c-0.078,0 -0.1739,0.0182 -0.2897,0.0538l-0.1736,0c0.0378,1.2899 0,2.6522 -0.1159,4.085c-0.0392,0.3585 -0.078,0.9498 -0.1158,1.7739c0,-0.2153 -0.02,-0.0178 -0.0581,0.5913c-0.0777,0.6095 -0.1736,1.1099 -0.2898,1.5048c-0.1158,0.2862 -0.2516,0.4299 -0.4052,0.4299c-0.1158,-0.036 -0.1547,-0.215 -0.1159,-0.5372c0.2695,-1.899 0.4434,-3.4754 0.5211,-4.7304c0.1162,-1.3975 0.0959,-2.6332 -0.0577,-3.7086c-0.0777,-0.4298 -0.1736,-0.7877 -0.2898,-1.0749c-0.2316,-0.5015 -0.1158,-0.8237 0.3475,-0.9677c0.6954,-0.2862 1.4674,-0.4473 2.3171,-0.4837c0.3479,-0.0713 0.5215,-0.2687 0.5215,-0.5909c-0.0389,-0.1433 0,-0.2331 0.1162,-0.2691c0.1155,-0.0353 0.2313,0 0.3475,0.1076z" clip-rule="evenodd" fill-rule="evenodd"/>
   <path fill="#025A92" d="m47.1666,283.67262l1.1583,0c0.3857,-0.0353 0.6373,-0.2687 0.7531,-0.6986l0,-0.1076c-1.236,0 -2.2012,0.0185 -2.8962,0.0538c0,0.0723 0.0189,0.1436 0.0577,0.2149c0.154,0.3586 0.4637,0.5375 0.9271,0.5375zm-1.1584,-2.0423c0,0.072 0.0189,0.1793 0.0577,0.3222l0,0.2691l3.0121,0l0,-0.6455c-1.0813,-0.0349 -2.105,-0.0174 -3.0698,0.0542zm0,-0.7528l0,0.1077c0.695,-0.0357 1.7176,-0.0538 3.0698,-0.0538l0,-0.3226c-0.0388,-0.2862 -0.2316,-0.4837 -0.5791,-0.5913c-0.5792,-0.1426 -1.1588,-0.1611 -1.7379,-0.0535c-0.5411,0.1797 -0.792,0.4837 -0.7528,0.9135zm0.463,-1.5048c0.8882,-0.1789 1.7379,-0.1429 2.5491,0.1073c0.3083,0 0.5215,0.3411 0.6369,1.0215c0.154,0.9321 0.0963,1.8459 -0.1735,2.7413c-0.1551,0.6451 -0.5215,0.9858 -1.1007,1.0211c0.0382,0.4662 0.0578,0.9859 0.0578,1.5586l0.7531,0c0.3856,0.072 0.6754,-0.1967 0.8689,-0.8058c0.1159,-0.323 0.174,-1.1106 0.174,-2.3653c0,-0.3578 0.0189,-0.5731 0.0577,-0.6451c0.0382,-0.0713 0.0959,-0.1251 0.174,-0.1611c0.0766,0 0.1347,0.0535 0.1735,0.1611c0.077,0.1437 0.1159,0.4299 0.1159,0.8601c0,0.6811 -0.0389,1.3622 -0.1159,2.0426c-0.1935,1.0034 -0.6761,1.5048 -1.4481,1.5048l-0.7531,0l0,0.5375c0.927,0 1.5062,0.484 1.7379,1.4514c0.2317,0.7524 0.4245,1.6659 0.5792,2.7412c0,0.3938 -0.0578,0.5728 -0.1736,0.5375c-0.1547,0.0713 -0.2705,-0.0538 -0.3475,-0.3764c-0.1551,-0.896 -0.3675,-1.8088 -0.6373,-2.7409c-0.1158,-0.6091 -0.5022,-0.8957 -1.1587,-0.86c0.077,1.1822 0.1351,2.4368 0.1739,3.762c0,0.3226 -0.0777,0.5015 -0.2317,0.5379c-0.1547,0.0352 -0.2516,-0.1077 -0.2897,-0.4302c-0.1159,-0.4662 -0.1936,-1.8627 -0.2317,-4.1926c0,-1.4325 -0.0196,-2.4536 -0.0578,-3.0635l-0.4056,0c-0.1939,2.7598 -0.2897,4.981 -0.2897,6.6651c0,0.5375 -0.1159,0.8412 -0.3475,0.9135c-0.1936,0 -0.2898,-0.1796 -0.2898,-0.5375l0,-0.4302c0.0773,-1.2535 0.1351,-2.3288 0.1739,-3.2245c-0.8889,-0.0717 -1.3711,0.2149 -1.4481,0.86c-0.3098,0.7884 -0.5411,1.6659 -0.695,2.6333c-0.0781,0.2502 -0.174,0.3764 -0.2898,0.3764c-0.1159,0.0712 -0.1736,-0.0535 -0.1736,-0.3764c0,-0.8597 0.1928,-1.7736 0.5792,-2.7409c0.3475,-1.0753 1.0425,-1.5943 2.0854,-1.559c0,-0.1429 0.0189,-0.3222 0.0578,-0.5375c-0.1159,0.0364 -0.2517,0.0364 -0.4053,0l-0.3475,0c-0.7342,0.0724 -1.2557,-0.34 -1.5643,-1.2364c-0.2706,-0.6801 -0.4053,-1.5586 -0.4053,-2.6333c0,-0.4654 0.0959,-0.6989 0.2894,-0.6989c0.2698,0.2149 0.4056,0.52 0.4056,0.9135c-0.0777,0.5379 -0.0581,1.1113 0.0578,1.7201c0.1539,0.86 0.6173,1.3084 1.3904,1.3441l0.5792,0c0,-0.179 0.0192,-0.4302 0.058,-0.7524c0,-0.3942 0.0189,-0.6452 0.0578,-0.7528c-0.6569,-0.0713 -1.0425,-0.3404 -1.1584,-0.8066c-0.3478,-1.0386 -0.4255,-2.0423 -0.2317,-3.0096c0.0767,-0.6804 0.4053,-1.039 0.9845,-1.075z" clip-rule="evenodd" fill-rule="evenodd"/>
   <path fill="#025A92" d="m60.0725,285.60732c0.0378,0.18 0,0.3047 -0.1158,0.3764c-0.1551,0.036 -0.2705,-0.0175 -0.3475,-0.1611c-0.1939,-0.4302 -0.5414,-0.9139 -1.0429,-1.4514c-0.1158,-0.1076 -0.1939,-0.1614 -0.2317,-0.1614l-0.0581,0.1614c-0.0388,0.4299 0.0193,1.5408 0.1739,3.3326c0.077,0.4658 0.2699,1.2364 0.5792,2.311c0.077,0.2509 0.1351,0.3942 0.174,0.4298c0.0378,0.1433 0.0958,0.3404 0.1735,0.5913c0.0382,0.1077 0.0581,0.179 0.0581,0.2153c0.0382,0.1426 -0.0199,0.2324 -0.1735,0.2688c-0.1551,0 -0.2709,-0.0899 -0.3479,-0.2688c-0.4633,-0.8953 -0.8109,-2.0965 -1.0425,-3.6016c-0.1547,-1.2176 -0.2128,-2.2387 -0.174,-3.0635l0,-1.2899c0,-0.1076 0.0382,-0.1789 0.1159,-0.2152c0.077,-0.0353 0.1539,-0.0175 0.232,0.0538c0.3083,0.2873 0.5403,0.484 0.695,0.5913c0.5404,0.4662 0.9845,1.0935 1.3323,1.8812zm-3.6494,-6.02c0.1159,-0.1789 0.2317,-0.2149 0.3475,-0.1073c0.1159,0.1073 0.1348,0.251 0.0578,0.4299c-0.1159,0.1436 -0.1355,0.2687 -0.0578,0.376c0.1159,0.1076 0.2506,0.1262 0.4056,0.0542c0.4242,-0.1429 0.9456,-0.1255 1.564,0.0534c0.3853,0.1077 0.6173,0.4124 0.695,0.9139c0.1159,0.5022 0.0382,0.9139 -0.2316,1.2361c-0.1159,0.2153 -0.4256,0.2687 -0.9271,0.1611l-0.1158,0c-0.3864,-0.0349 -0.695,-0.0171 -0.9267,0.0542c-0.1547,0.036 -0.2128,0.1796 -0.174,0.4298c0.077,0.4658 0.0963,1.1473 0.0581,2.0423c-0.0388,0.3949 -0.0777,0.9328 -0.1158,1.6128c-0.1158,1.3975 -0.2128,2.3649 -0.2898,2.9024c-0.0777,0.5022 -0.2124,1.0749 -0.4052,1.7197c-0.0781,0.1433 -0.1739,0.2153 -0.2898,0.2153c-0.1158,0 -0.1739,-0.072 -0.1739,-0.2153c0,-0.0357 0.0192,-0.1971 0.0581,-0.4833c0.0381,-0.2513 0.0577,-0.4124 0.0577,-0.4837c0.3479,-1.8277 0.5407,-3.5115 0.5796,-5.0526c0.0377,-0.6801 0.0188,-1.2717 -0.0581,-1.7739c-0.0389,-0.3226 -0.1358,-0.555 -0.2898,-0.6986c-0.1547,-0.1789 -0.0777,-0.376 0.232,-0.5913c0.3853,-0.3226 1.0426,-0.3939 1.9696,-0.2149c0.3853,0.0723 0.5792,-0.1077 0.5792,-0.5375c0,-0.3942 -0.1739,-0.6088 -0.5215,-0.6452c-0.5791,-0.1076 -0.9466,-0.1076 -1.1006,0c-0.1547,0.1077 -0.3675,0.1262 -0.6373,0.0539c-0.0777,-0.0353 -0.1935,-0.143 -0.3475,-0.3226c-0.0777,-0.0713 -0.1358,-0.1251 -0.1739,-0.1614c-0.1547,-0.2863 -0.0777,-0.6088 0.232,-0.9674zm-1.8537,2.1503l-1.4482,0c0.0382,0.5371 0.2317,1.0033 0.5792,1.3972c0.1159,0.1436 0.2117,0.2149 0.2898,0.2149c0.0766,0 0.1536,-0.0713 0.2317,-0.2149c0.2316,-0.3575 0.3475,-0.8237 0.3475,-1.3972zm-2.2013,-2.0965l2.7805,0c0.2698,0.036 0.4056,0.1437 0.4056,0.3226c-0.0392,0.2149 -0.1939,0.3222 -0.4637,0.3222c-0.5022,0 -1.2361,0.0185 -2.2009,0.0542l-0.2898,0c-0.3475,0.036 -0.5215,-0.0178 -0.5215,-0.1615c-0.0777,-0.0353 -0.0965,-0.1251 -0.0577,-0.2687l0,-0.1073c0,-0.1429 0.1158,-0.1967 0.3475,-0.1615zm-0.5792,3.0635c-0.0392,-0.1069 0,-0.1611 0.1155,-0.1611c0.0774,0 0.1351,0.0542 0.1739,0.1611c0.3476,1.04 0.8113,1.6851 1.3904,1.9354c0.0382,0.036 0.1159,0.0538 0.2317,0.0538l0,-0.9139c-0.2317,-0.1076 -0.4633,-0.34 -0.695,-0.6989c-0.232,-0.3222 -0.3475,-0.7699 -0.3475,-1.3434l-0.4056,0c-0.2705,0.072 -0.4634,0.036 -0.5792,-0.1076c-0.0392,-0.0713 -0.0581,-0.1611 -0.0581,-0.2688l0,-0.0538c0.077,-0.2149 0.1928,-0.2862 0.3475,-0.2149l3.5336,0c0.232,0 0.3475,0.1076 0.3475,0.3222c-0.0389,0.18 -0.1936,0.2687 -0.4634,0.2687c-0.0388,0 -0.0969,0.0186 -0.1735,0.0542l-0.0581,0c-0.0777,0.6811 -0.1736,1.147 -0.2895,1.3972c-0.232,0.3585 -0.4448,0.5738 -0.6372,0.6451c0.0377,0.2873 0.0577,0.5913 0.0577,0.9139c0.077,0 0.1739,-0.0353 0.2898,-0.1077c0.4633,-0.2149 0.7331,-0.8062 0.8108,-1.7739c0.0382,-0.1425 0.1348,-0.2145 0.2898,-0.2145c0.1158,0 0.1736,0.072 0.1736,0.2145c0.077,0.9324 -0.2705,1.6848 -1.0426,2.2576c-0.1546,0.144 -0.3286,0.2153 -0.5214,0.2153l0,0.3222l1.2746,0c0.2698,0.0363 0.4052,0.1436 0.4052,0.3225c-0.0388,0.1797 -0.2124,0.2873 -0.5211,0.3226c-0.5025,0 -0.8889,0.0182 -1.1587,0.0538l0,0.5375c0.3087,0.036 0.5984,0.2509 0.869,0.6448c0.3475,0.4302 0.5795,1.0397 0.695,1.8277c0.077,0.4299 0.077,0.7884 0,1.075c-0.0389,0.1076 -0.1155,0.1611 -0.2317,0.1611c-0.1158,0 -0.1935,-0.0535 -0.2317,-0.1611c0,-0.0353 -0.0199,-0.2153 -0.0577,-0.5375c-0.0392,-0.1789 -0.0581,-0.3226 -0.0581,-0.4302c-0.1158,-0.7877 -0.3475,-1.3612 -0.695,-1.7197c-0.0389,-0.1077 -0.1358,-0.179 -0.2898,-0.2153c0.0381,0.5022 0.0581,0.9138 0.0581,1.2364c0,0.2153 -0.02,0.556 -0.0581,1.0212c0,0.6804 -0.02,1.164 -0.0577,1.4513c-0.0389,0.2862 -0.1159,0.4302 -0.2317,0.4302c-0.1162,0 -0.1939,-0.144 -0.2317,-0.4302c0,-1.1103 -0.0199,-1.935 -0.0581,-2.4725l0,-1.2899c-0.1158,0.036 -0.2317,0.1077 -0.3475,0.2146c-0.1935,0.144 -0.3675,0.4302 -0.5214,0.8604l-0.0581,0.1073c-0.0777,0.3585 -0.1547,0.9138 -0.2314,1.6662c-0.0392,0.179 -0.1358,0.2688 -0.2897,0.2688c-0.1547,-0.036 -0.2128,-0.1433 -0.174,-0.3222c0.0382,-0.6451 0.1159,-1.2179 0.2317,-1.7201c0.1159,-0.5015 0.3087,-0.8953 0.5796,-1.1826c0.2316,-0.2866 0.5011,-0.4477 0.8108,-0.4837l0,-0.5375c-0.85,0 -1.2745,0.0186 -1.2745,0.0535c-0.2706,0.0723 -0.4634,0.0185 -0.5792,-0.1611c-0.0777,-0.0713 -0.0777,-0.2149 0,-0.4299c0,-0.1076 0.1158,-0.1614 0.3475,-0.1614l1.5062,0l0,-0.3222c-0.1158,0 -0.2317,-0.0357 -0.3475,-0.1077c-0.695,-0.2865 -1.2165,-0.8415 -1.564,-1.6662c-0.0392,-0.0713 -0.0392,-0.2688 0,-0.5913l0,-0.2153z" clip-rule="evenodd" fill-rule="evenodd"/>
   <path fill="#025A92" d="m14.794,263.81642l-0.4077,0.6775l-1.8174,-1.0935c-0.2887,-0.1732 -0.4805,-0.2776 -0.576,-0.3122c-0.155,-0.0538 -0.3069,-0.0513 -0.4559,0.0078c-0.1482,0.0596 -0.2797,0.1832 -0.3938,0.3725c-0.1151,0.1925 -0.1636,0.3607 -0.1436,0.5061c0.0196,0.1451 0.0812,0.262 0.1835,0.3504c0.1023,0.0887 0.2866,0.2128 0.5521,0.3731l1.8559,1.1167l-0.4077,0.6776l-1.7622,-1.0604c-0.4027,-0.2423 -0.6765,-0.4323 -0.8208,-0.5688c-0.144,-0.1365 -0.2442,-0.2887 -0.2991,-0.4562c-0.0556,-0.1676 -0.0673,-0.354 -0.0363,-0.5593c0.0317,-0.2056 0.1272,-0.4412 0.2869,-0.7071c0.1928,-0.3204 0.3757,-0.5411 0.55,-0.6619c0.1735,-0.1212 0.3482,-0.1942 0.5242,-0.2192c0.1761,-0.0249 0.3383,-0.0135 0.4862,0.0339c0.2192,0.0716 0.5165,0.2202 0.8918,0.4462l1.7899,1.0768z" clip-rule="evenodd" fill-rule="evenodd"/>
   <path fill="#025A92" d="m9.34167,265.38572l3.55213,1.6499l-0.3244,0.6979l-3.04738,0.3517l2.37238,1.1021l-0.3098,0.6662l-3.55171,-1.6499l0.33396,-0.7196l2.98145,-0.3557l-2.31636,-1.0764l0.30973,-0.6662z" clip-rule="evenodd" fill-rule="evenodd"/>
   <path fill="#025A92" d="m11.1057,271.17152l-3.66227,-1.3893l0.28058,-0.7396l3.66229,1.389l-0.2806,0.7399z" clip-rule="evenodd" fill-rule="evenodd"/>
   <path fill="#025A92" d="m6.85851,271.49302l4.15479,-0.1985l-0.2498,0.8201l-3.0617,0.1044l2.4935,1.7615l-0.24376,0.8023l-3.33825,-2.4818l0.24522,-0.808z" clip-rule="evenodd" fill-rule="evenodd"/>
   <path fill="#025A92" d="m6.08358,274.19972l3.83902,0.7738l-0.57348,2.8467l-0.6494,-0.1312l0.41737,-2.0711l-0.85114,-0.1718l-0.3885,1.9275l-0.6469,-0.1305l0.3885,-1.9275l-1.04503,-0.2103l-0.43234,2.1446l-0.64691,-0.1304l0.58881,-2.9198z" clip-rule="evenodd" fill-rule="evenodd"/>
   <path fill="#025A92" d="m7.54223,278.95792l-0.05703,0.582c-0.03671,0.3775 -0.04384,0.6149 -0.02138,0.7122c0.02281,0.0969 0.07093,0.1757 0.14399,0.2366c0.07271,0.061 0.16716,0.0966 0.28407,0.1084c0.13152,0.0128 0.24094,-0.0121 0.32826,-0.0738c0.08768,-0.0627 0.14792,-0.1565 0.18178,-0.2819c0.01533,-0.0628 0.03814,-0.2538 0.06915,-0.5732l0.05987,-0.6137l-0.98871,-0.0966zm-2.17275,-1.0065l3.89819,0.3799l-0.16182,1.657c-0.04099,0.4163 -0.1055,0.7153 -0.19354,0.8975c-0.08874,0.1817 -0.22775,0.3211 -0.41808,0.4166c-0.18997,0.0963 -0.40026,0.133 -0.63051,0.1105c-0.29226,-0.0281 -0.52572,-0.1379 -0.69965,-0.3286c-0.17358,-0.1903 -0.26874,-0.4591 -0.28478,-0.8062c-0.11584,0.1604 -0.23881,0.2905 -0.36854,0.3895c-0.12938,0.0991 -0.355,0.2282 -0.67649,0.386l-0.80694,0.4024l0.09231,-0.9416l0.90353,-0.4862c0.32292,-0.1725 0.52715,-0.2922 0.6134,-0.3589c0.08626,-0.0666 0.14756,-0.1404 0.18534,-0.2206c0.03707,-0.0809 0.06451,-0.2114 0.08198,-0.3924l0.01568,-0.1594l-1.62706,-0.1586l0.07698,-0.7869z" clip-rule="evenodd" fill-rule="evenodd"/>
   <path fill="#025A92" d="m6.29935,281.85992l0.07876,0.7688c-0.25769,0.0477 -0.44695,0.1429 -0.56706,0.2851c-0.12047,0.1418 -0.18,0.3336 -0.17857,0.5738c0.00178,0.2549 0.05631,0.4466 0.16467,0.5749c0.10871,0.1287 0.23488,0.1925 0.37923,0.1918c0.09267,-0.0007 0.17144,-0.0282 0.23595,-0.0831c0.06451,-0.0545 0.12083,-0.1496 0.16823,-0.2851c0.03137,-0.093 0.08697,-0.3044 0.16716,-0.6344c0.10301,-0.4242 0.2299,-0.7225 0.38244,-0.8943c0.21421,-0.2416 0.47654,-0.3632 0.78627,-0.365c0.19924,-0.001 0.386,0.0542 0.56029,0.1665c0.17465,0.1123 0.3076,0.2744 0.39955,0.4869c0.09196,0.2124 0.13901,0.469 0.14079,0.7698c0.00249,0.4915 -0.10336,0.8622 -0.31722,1.1117c-0.21421,0.2499 -0.50112,0.3817 -0.86111,0.3964l-0.03885,-0.7906c0.20102,-0.0349 0.34573,-0.1083 0.43305,-0.2199c0.08733,-0.1123 0.13081,-0.2791 0.12938,-0.5018c-0.00107,-0.2299 -0.04954,-0.4096 -0.1447,-0.539c-0.06095,-0.0834 -0.14222,-0.1247 -0.2438,-0.1243c-0.09231,0.0007 -0.17179,0.0399 -0.23702,0.119c-0.08304,0.1002 -0.16894,0.3429 -0.25769,0.7282c-0.08839,0.3849 -0.18106,0.67 -0.27694,0.855c-0.09623,0.185 -0.22811,0.3297 -0.39598,0.4349c-0.16752,0.1051 -0.37532,0.1582 -0.62303,0.1597c-0.22419,0.001 -0.43483,-0.0596 -0.63158,-0.1836c-0.19639,-0.1237 -0.34288,-0.2991 -0.43947,-0.5265c-0.09659,-0.2274 -0.14542,-0.5111 -0.14755,-0.8514c-0.00286,-0.4951 0.10942,-0.8758 0.33717,-1.1424c0.22704,-0.2669 0.55994,-0.4273 0.99763,-0.4811z" clip-rule="evenodd" fill-rule="evenodd"/>
   <path fill="#025A92" d="m9.07515,286.25562l-3.9057,0.2894l-0.05842,-0.7884l3.9057,-0.2894l0.05842,0.7884z" clip-rule="evenodd" fill-rule="evenodd"/>
   <path fill="#025A92" d="m5.34841,288.22342l3.22277,-0.448l-0.16004,-1.1509l0.65653,-0.0916l0.42842,3.0827l-0.65617,0.0912l-0.15968,-1.1484l-3.22312,0.4484l-0.10871,-0.7834z" clip-rule="evenodd" fill-rule="evenodd"/>
   <path fill="#025A92" d="m5.98242,291.80942l1.60425,-0.3789l1.87692,-1.9183l0.21314,0.9021l-1.29595,1.2536l1.71612,0.5218l0.2096,0.8871l-2.54411,-0.8786l-1.59855,0.3778l-0.18142,-0.7666z" clip-rule="evenodd" fill-rule="evenodd"/>
   <path fill="#025A92" d="m9.6925,297.15432c-0.40632,0.1786 -0.67257,0.4081 -0.79981,0.6875c-0.12688,0.2798 -0.12688,0.5639 0,0.8519c0.12689,0.289 0.3354,0.4801 0.6241,0.5738c0.28941,0.093 0.64151,0.0485 1.05751,-0.134c0.4109,-0.1807 0.6775,-0.4056 0.8009,-0.6751c0.1226,-0.2691 0.1187,-0.5524 -0.0129,-0.8507c-0.1308,-0.2984 -0.3393,-0.494 -0.6241,-0.5864c-0.2847,-0.0926 -0.6333,-0.0484 -1.0457,0.133zm-0.3525,-0.735c0.36498,-0.1607 0.695,-0.2405 0.9912,-0.2405c0.2185,0.0014 0.4309,0.0402 0.6384,0.1176c0.2074,0.0773 0.3828,0.1842 0.5268,0.3215c0.1924,0.1817 0.3535,0.4184 0.4818,0.71c0.2321,0.5285 0.2542,1.0232 0.066,1.4845c-0.1882,0.4612 -0.5742,0.8201 -1.1577,1.0771c-0.5788,0.2544 -1.10097,0.2962 -1.56646,0.1251c-0.46513,-0.1708 -0.81371,-0.5197 -1.04503,-1.0458c-0.23452,-0.5332 -0.2584,-1.029 -0.07164,-1.4863c0.18712,-0.458 0.566,-0.8119 1.13663,-1.0632z" clip-rule="evenodd" fill-rule="evenodd"/>
   <path fill="#025A92" d="m9.48537,301.37352l3.40703,-1.9318l1.3238,2.3357l-0.576,0.3268l-0.9346,-1.6477l-0.8062,0.4572l0.8062,1.4218l-0.5763,0.3269l-0.8062,-1.4222l-1.44816,0.8209l-0.38957,-0.6876z" clip-rule="evenodd" fill-rule="evenodd"/>
   <path fill="#025A92" d="m13.7933,305.85282l0.5442,0.5493c-0.1707,0.1992 -0.2584,0.3917 -0.2626,0.5777c-0.0043,0.1864 0.0695,0.3725 0.2216,0.5589c0.1608,0.1971 0.3237,0.3115 0.4891,0.3436c0.1653,0.0324 0.304,0.0025 0.4152,-0.0887c0.072,-0.0585 0.1155,-0.1294 0.1315,-0.2125c0.0164,-0.0834 0,-0.1924 -0.0481,-0.3279c-0.0335,-0.0919 -0.1233,-0.2915 -0.2677,-0.5988c-0.1867,-0.3945 -0.2748,-0.7064 -0.2641,-0.9359c0.015,-0.3226 0.1422,-0.5821 0.3825,-0.7781c0.1543,-0.1255 0.3346,-0.2 0.5406,-0.2224c0.2061,-0.0221 0.4117,0.0207 0.6167,0.1283c0.2045,0.1073 0.4027,0.2777 0.593,0.5108c0.3105,0.381 0.4612,0.7356 0.4509,1.0646c-0.0093,0.329 -0.15,0.6116 -0.4209,0.849l-0.5268,-0.5913c0.1347,-0.1533 0.201,-0.3008 0.1989,-0.4431c-0.0022,-0.1418 -0.0735,-0.2994 -0.2146,-0.4715c-0.1447,-0.1779 -0.2951,-0.2876 -0.4509,-0.3283c-0.0998,-0.0267 -0.1889,-0.0078 -0.2673,0.056c-0.072,0.0584 -0.1087,0.139 -0.1105,0.2416c-0.0018,0.1298 0.0838,0.3729 0.2566,0.7286c0.1733,0.3553 0.2802,0.6351 0.3215,0.8393c0.0414,0.2043 0.0296,0.3996 -0.0345,0.5871c-0.0645,0.1871 -0.1929,0.3592 -0.3846,0.5154c-0.1736,0.1422 -0.376,0.2266 -0.6066,0.2537c-0.2306,0.0271 -0.4548,-0.0171 -0.6726,-0.1336c-0.2181,-0.1162 -0.4348,-0.3062 -0.6498,-0.57c-0.3133,-0.3835 -0.4647,-0.7506 -0.4555,-1.1006c0.0096,-0.3503 0.1679,-0.6839 0.4748,-1.0012z" clip-rule="evenodd" fill-rule="evenodd"/>
   <path fill="#025A92" d="m18.1755,310.50272l0.3714,0.7139c-0.3857,0.2192 -0.7482,0.3058 -1.0878,0.2598c-0.3404,-0.046 -0.6594,-0.2178 -0.9567,-0.5147c-0.3685,-0.3674 -0.5457,-0.7948 -0.5318,-1.2831c0.0143,-0.4879 0.2388,-0.9502 0.674,-1.3865c0.4605,-0.4612 0.9374,-0.7007 1.4307,-0.7182c0.4929,-0.0178 0.9331,0.1676 1.3216,0.555c0.3393,0.3382 0.5147,0.7136 0.5265,1.1252c0.0078,0.2445 -0.0674,0.509 -0.2257,0.7938l-0.6864,-0.4206c0.1105,-0.1764 0.1554,-0.3582 0.1347,-0.545c-0.021,-0.1875 -0.1059,-0.3546 -0.2545,-0.5032c-0.2056,-0.2053 -0.4459,-0.2977 -0.721,-0.2781c-0.2755,0.0196 -0.5778,0.195 -0.9078,0.5254c-0.3493,0.3504 -0.535,0.663 -0.5575,0.9374c-0.0224,0.2748 0.0674,0.5122 0.2688,0.7139c0.1486,0.1486 0.324,0.2285 0.5253,0.2409c0.2018,0.0129 0.427,-0.0598 0.6762,-0.2159z" clip-rule="evenodd" fill-rule="evenodd"/>
   <path fill="#025A92" d="m21.4302,310.08052l-2.5581,2.9655l-0.5987,-0.5165l2.5581,-2.9655l0.5987,0.5165z" clip-rule="evenodd" fill-rule="evenodd"/>
   <path fill="#025A92" d="m19.4911,313.58932l2.3495,-3.1333l2.3232,1.7419l-0.3974,0.53l-1.6905,-1.2678l-0.5208,0.695l1.5733,1.1794l-0.3964,0.5282l-1.5728,-1.1797l-0.6395,0.8529l1.7504,1.3123l-0.3956,0.5282l-2.3834,-1.7871z" clip-rule="evenodd" fill-rule="evenodd"/>
   <path fill="#025A92" d="m22.5858,315.85562l2.0152,-3.3582l0.6601,0.396l0.0281,3.0674l1.3462,-2.2423l0.6298,0.3775l-2.0152,3.3585l-0.6804,-0.4084l-0.0392,-3.0025l-1.3145,2.1902l-0.6301,-0.3782z" clip-rule="evenodd" fill-rule="evenodd"/>
   <path fill="#025A92" d="m29.0378,317.68442l0.5934,0.5428c-0.2862,0.3386 -0.5966,0.5446 -0.9324,0.618c-0.3354,0.0735 -0.6936,0.0218 -1.0746,-0.155c-0.4723,-0.2185 -0.7852,-0.5592 -0.9399,-1.0226c-0.1547,-0.463 -0.1023,-0.9737 0.1565,-1.5333c0.2737,-0.5917 0.6394,-0.9802 1.0963,-1.1659c0.4573,-0.1857 0.9346,-0.1636 1.4325,0.067c0.4345,0.2014 0.7282,0.4933 0.8804,0.8758c0.0916,0.227 0.1115,0.5015 0.0609,0.823l-0.7888,-0.159c0.0428,-0.2039 0.0229,-0.3896 -0.0613,-0.5582c-0.0837,-0.1682 -0.2209,-0.2969 -0.4116,-0.3853c-0.2638,-0.1219 -0.5211,-0.1261 -0.7724,-0.0131c-0.2516,0.1129 -0.4758,0.3813 -0.6719,0.8051c-0.2081,0.4491 -0.2751,0.8066 -0.202,1.0721c0.0734,0.2656 0.2391,0.458 0.4979,0.5778c0.1907,0.0884 0.3824,0.1037 0.5763,0.0463c0.1932,-0.0577 0.3803,-0.2031 0.5607,-0.4355z" clip-rule="evenodd" fill-rule="evenodd"/>
   <path fill="#025A92" d="m29.9304,319.62102l1.2756,-3.7029l2.7456,0.946l-0.2156,0.6262l-1.9982,-0.6882l-0.2827,0.8212l1.8592,0.6401l-0.2149,0.6237l-1.8595,-0.6401l-0.3468,1.0079l2.0684,0.7125l-0.2146,0.6241l-2.8165,-0.9705z" clip-rule="evenodd" fill-rule="evenodd"/>
   <path fill="#025A92" d="m56.3069,318.59492l-0.9726,-1.2068l-0.041,1.5461l1.0136,-0.3393zm1.872,1.008l-0.8159,0.273l-0.6063,-0.7353l-1.4845,0.4965l-0.0249,0.9463l-0.7955,0.2659l0.2053,-4.198l0.793,-0.2651l2.7288,3.2167z" clip-rule="evenodd" fill-rule="evenodd"/>
   <path fill="#025A92" d="m58.5033,319.45572l-1.6036,-3.5731l0.7018,-0.3151l2.5331,1.7297l-1.0707,-2.3859l0.6701,-0.3012l1.6039,3.5735l-0.7239,0.3251l-2.4864,-1.6841l1.0461,2.3303l-0.6704,0.3008z" clip-rule="evenodd" fill-rule="evenodd"/>
   <path fill="#025A92" d="m61.0774,314.62732l1.2899,2.2504l0.5121,-0.2937c0.1918,-0.1094 0.324,-0.1996 0.3964,-0.2705c0.0955,-0.0909 0.1607,-0.1914 0.196,-0.2997c0.0353,-0.1088 0.0324,-0.252 -0.0085,-0.431c-0.041,-0.1789 -0.1366,-0.3995 -0.2873,-0.6622c-0.1508,-0.2627 -0.2894,-0.4509 -0.4163,-0.5653c-0.1269,-0.1137 -0.2549,-0.1864 -0.3832,-0.217c-0.1286,-0.031 -0.2651,-0.0235 -0.4095,0.0217c-0.108,0.0335 -0.3022,0.1305 -0.5817,0.2908l-0.3079,0.1765zm-1.0162,-0.1814l1.2546,-0.7186c0.2823,-0.1622 0.5104,-0.2644 0.6836,-0.3061c0.2324,-0.0556 0.463,-0.0492 0.6911,0.0192c0.2281,0.0684 0.442,0.19 0.6402,0.3643c0.1989,0.175 0.3892,0.4209 0.5717,0.7395c0.1604,0.2795 0.2641,0.5404 0.3104,0.7831c0.057,0.2958 0.0503,0.5653 -0.0199,0.8084c-0.0521,0.1842 -0.1615,0.3667 -0.3262,0.5478c-0.124,0.1344 -0.3129,0.2748 -0.5663,0.4198l-1.291,0.7403l-1.9482,-3.3977z" clip-rule="evenodd" fill-rule="evenodd"/>
   <path fill="#025A92" d="m68.011,313.94652l-2.0288,-2.5438l-0.9085,0.7246l-0.4135,-0.5182l2.4333,-1.9404l0.4131,0.5179l-0.9064,0.7228l2.0288,2.5441l-0.618,0.493z" clip-rule="evenodd" fill-rule="evenodd"/>
   <path fill="#025A92" d="m69.8247,312.47172l-2.697,-2.8396l2.105,-1.9999l0.4562,0.4805l-1.5322,1.4552l0.5981,0.6295l1.4256,-1.3544l0.4541,0.4786l-1.4257,1.3541l0.7343,0.7731l1.5864,-1.5073l0.4548,0.4786l-2.1596,2.0516z" clip-rule="evenodd" fill-rule="evenodd"/>
   <path fill="#025A92" d="m72.9421,307.16822l0.6865,-0.4192c0.2452,0.3693 0.3568,0.725 0.334,1.0675c-0.0228,0.3425 -0.1722,0.6722 -0.4484,0.9894c-0.3415,0.3925 -0.7556,0.5981 -1.2432,0.6181c-0.4879,0.0196 -0.9645,-0.1732 -1.4296,-0.5774c-0.4915,-0.4277 -0.7631,-0.8872 -0.8144,-1.378c-0.0514,-0.4904 0.1026,-0.9427 0.4633,-1.3568c0.3144,-0.3615 0.6762,-0.5621 1.0867,-0.6017c0.2431,-0.0249 0.5115,0.0321 0.807,0.1707l-0.3725,0.7132c-0.1839,-0.0983 -0.3685,-0.1304 -0.5531,-0.0966c-0.1854,0.0336 -0.3465,0.1298 -0.4844,0.2884c-0.1907,0.2188 -0.267,0.4651 -0.2281,0.7381c0.0381,0.2734 0.2338,0.5632 0.5859,0.869c0.3736,0.3247 0.6983,0.4894 0.9738,0.4929c0.2751,0.0036 0.5068,-0.1023 0.6936,-0.3172c0.1379,-0.1586 0.206,-0.3389 0.2046,-0.5407c-0.0018,-0.2021 -0.0888,-0.422 -0.2617,-0.6597z" clip-rule="evenodd" fill-rule="evenodd"/>
   <path fill="#025A92" d="m74.9015,307.05402l-3.1971,-2.2626l0.4573,-0.6454l1.2582,0.8903l0.895,-1.2646l-1.2586,-0.8907l0.457,-0.6455l3.1971,2.2626l-0.457,0.6455l-1.3978,-0.9894l-0.8954,1.2649l1.3983,0.9891l-0.457,0.6458z" clip-rule="evenodd" fill-rule="evenodd"/>
   <path fill="#025A92" d="m77.1146,303.86302l-3.4074,-1.9315l0.3793,-0.6694l3.0659,-0.1047l-2.2751,-1.2896l0.3622,-0.6394l3.4074,1.9311l-0.3914,0.6907l-3.0007,0.1141l2.2219,1.2592l-0.3621,0.6395z" clip-rule="evenodd" fill-rule="evenodd"/>
   <path fill="#025A92" d="m77.4679,299.08502c0.4067,0.1775 0.7553,0.2178 1.0472,0.1219c0.2919,-0.0962 0.5004,-0.2891 0.6266,-0.5778c0.1262,-0.289 0.1258,-0.5713 -0.0018,-0.8475c-0.1272,-0.2763 -0.3992,-0.5051 -0.8155,-0.6869c-0.4113,-0.1793 -0.7574,-0.2231 -1.0386,-0.1308c-0.2809,0.092 -0.4865,0.2873 -0.617,0.586c-0.1301,0.2987 -0.1329,0.5842 -0.0082,0.8565c0.1255,0.2719 0.3946,0.4982 0.8073,0.6786zm-0.3015,0.7574c-0.3653,-0.1593 -0.6487,-0.3482 -0.8494,-0.566c-0.1472,-0.1611 -0.2623,-0.344 -0.3457,-0.5485c-0.0837,-0.2046 -0.1244,-0.4067 -0.1208,-0.6052c0.0028,-0.2649 0.0677,-0.5436 0.196,-0.8359c0.2303,-0.5289 0.5792,-0.8807 1.0458,-1.0546c0.4669,-0.1747 0.9919,-0.134 1.5764,0.1208c0.5792,0.2531 0.9641,0.6084 1.1538,1.0661c0.1903,0.458 0.17,0.9506 -0.0603,1.4781c-0.2327,0.5339 -0.5809,0.8871 -1.0439,1.06c-0.463,0.1728 -0.9802,0.1343 -1.5519,-0.1148z" clip-rule="evenodd" fill-rule="evenodd"/>
   <path fill="#025A92" d="m80.6235,296.61232l-3.6911,-1.2104l0.2463,-0.7511l3.0642,1.0042l0.6123,-1.8686l0.6273,0.2057l-0.859,2.6202z" clip-rule="evenodd" fill-rule="evenodd"/>
   <path fill="#025A92" d="m79.8496,292.47302c0.4327,0.0977 0.7827,0.0724 1.0515,-0.0766c0.2687,-0.149 0.4377,-0.3771 0.5075,-0.685c0.0695,-0.3073 0.0164,-0.5846 -0.1604,-0.8319c-0.1764,-0.2474 -0.4865,-0.421 -0.9299,-0.5222c-0.4373,-0.0991 -0.7859,-0.077 -1.0443,0.0656c-0.2595,0.1433 -0.4245,0.3739 -0.4968,0.6915c-0.072,0.3179 -0.0211,0.5991 0.1525,0.8429c0.1739,0.2438 0.4808,0.4159 0.9199,0.5157zm-0.1543,0.8006c-0.3889,-0.0884 -0.7022,-0.2207 -0.9399,-0.3971c-0.175,-0.1308 -0.3226,-0.2891 -0.443,-0.4744c-0.1205,-0.1853 -0.1975,-0.376 -0.2317,-0.5721c-0.047,-0.2605 -0.0353,-0.5463 0.0356,-0.8571c0.1273,-0.5628 0.4042,-0.9734 0.8301,-1.2322c0.4256,-0.2584 0.9496,-0.3172 1.5715,-0.1761c0.6163,0.1398 1.0607,0.417 1.333,0.8312c0.2723,0.4142 0.3447,0.9018 0.2175,1.4628c-0.1291,0.5677 -0.4049,0.9801 -0.8277,1.2367c-0.4223,0.2567 -0.9377,0.3162 -1.5454,0.1783z" clip-rule="evenodd" fill-rule="evenodd"/>
   <path fill="#025A92" d="m81.2892,287.45892l-0.6554,-0.0763l0.1964,-1.693l1.55,0.18c0.1401,0.1832 0.2531,0.438 0.3376,0.7645c0.0845,0.3262 0.1087,0.6494 0.0716,0.9695c-0.0477,0.407 -0.1743,0.7517 -0.3799,1.0343c-0.206,0.283 -0.4762,0.4816 -0.812,0.5967c-0.3346,0.1158 -0.6889,0.1515 -1.0624,0.108c-0.4053,-0.0471 -0.7549,-0.1736 -1.0501,-0.38c-0.2954,-0.2067 -0.5082,-0.4833 -0.6383,-0.8297c-0.1002,-0.2648 -0.1287,-0.5828 -0.0856,-0.9542c0.0564,-0.4833 0.2014,-0.8486 0.4356,-1.0963c0.2338,-0.2484 0.5343,-0.3903 0.9007,-0.4266l0.0556,0.7973c-0.1975,0.0324 -0.3604,0.1176 -0.489,0.2559c-0.128,0.1386 -0.205,0.3211 -0.2314,0.5478c-0.0395,0.3432 0.0375,0.6284 0.231,0.8565c0.1942,0.2281 0.5054,0.3664 0.9338,0.4163c0.4616,0.0534 0.8198,-0.0089 1.0743,-0.1871c0.2548,-0.1783 0.4013,-0.4338 0.4405,-0.7667c0.0186,-0.1643 0.0057,-0.3329 -0.0399,-0.5061c-0.0449,-0.1725 -0.1073,-0.3237 -0.185,-0.453l-0.4936,-0.0574l-0.1045,0.8996z" clip-rule="evenodd" fill-rule="evenodd"/>
   <path fill="#025A92" d="m82.9572,284.25432l-1.6484,-0.026l-2.2908,1.3986l0.0147,-0.9271l1.5639,-0.8971l-1.5347,-0.9274l0.0142,-0.9107l2.2505,1.476l1.6427,0.0256l-0.0121,0.7881z" clip-rule="evenodd" fill-rule="evenodd"/>
   <path fill="#025A92" d="m80.9958,278.75402l1.0368,-0.1493l-0.104,-0.7243c-0.0407,-0.2823 -0.0742,-0.4601 -0.1013,-0.5336c-0.0374,-0.1133 -0.1026,-0.2006 -0.1953,-0.2619c-0.0923,-0.061 -0.2074,-0.082 -0.3454,-0.0624c-0.1158,0.0164 -0.2106,0.0592 -0.2837,0.1272c-0.073,0.0678 -0.1201,0.1579 -0.1422,0.2699c-0.0214,0.1122 -0.0068,0.3464 0.0446,0.7025l0.0905,0.6319zm-1.5415,0.2213l0.8964,-0.1286l-0.0738,-0.5133c-0.0438,-0.3047 -0.0756,-0.4936 -0.0948,-0.5667c-0.0349,-0.1315 -0.0966,-0.2299 -0.1846,-0.2958c-0.0874,-0.0656 -0.1939,-0.0895 -0.319,-0.0717c-0.1198,0.0175 -0.2125,0.0646 -0.278,0.1415c-0.0653,0.077 -0.0966,0.1815 -0.0934,0.3144c0.0021,0.0784 0.0296,0.3026 0.0827,0.6708l0.0645,0.4494zm-0.5325,0.8758l-0.2228,-1.5501c-0.0442,-0.3062 -0.0641,-0.5371 -0.0602,-0.6915c0.0035,-0.1547 0.0374,-0.2969 0.1016,-0.4273c0.0641,-0.1308 0.1579,-0.2456 0.2815,-0.3443c0.123,-0.0984 0.2688,-0.1601 0.4363,-0.1843c0.1814,-0.026 0.355,-0.0011 0.5207,0.0749c0.1654,0.0759 0.2984,0.1921 0.3985,0.3492c0.0346,-0.2462 0.1255,-0.4444 0.2734,-0.5952c0.1472,-0.1507 0.3329,-0.2427 0.5571,-0.2744c0.176,-0.0257 0.3535,-0.0089 0.5321,0.0488c0.1779,0.0581 0.3272,0.1508 0.4473,0.2784c0.1201,0.1279 0.2064,0.294 0.2591,0.4986c0.0332,0.1283 0.087,0.442 0.1622,0.9402l0.19,1.3199l-3.8768,0.5571z" clip-rule="evenodd" fill-rule="evenodd"/>
   <path fill="#025A92" d="m82.2076,275.47562l-3.8059,0.925l-0.6861,-2.8218l0.6444,-0.1565l0.4986,2.0533l0.844,-0.2049l-0.4644,-1.9111l0.6416,-0.1554l0.464,1.9104l1.0358,-0.2516l-0.5165,-2.1261l0.6409,-0.1558l0.7036,2.8945z" clip-rule="evenodd" fill-rule="evenodd"/>
   <path fill="#025A92" d="m77.3793,272.57042l3.7425,-1.1548l0.2331,0.7553l-3.7425,1.1548l-0.2331,-0.7553z" clip-rule="evenodd" fill-rule="evenodd"/>
   <path fill="#025A92" d="m76.8079,270.93622l-0.2716,-0.7395l2.3274,-0.8547c0.3041,-0.112 0.5482,-0.1711 0.7314,-0.1779c0.2406,-0.0064 0.4602,0.0606 0.6587,0.2021c0.1996,0.1411 0.3557,0.3668 0.469,0.6758c0.1333,0.3632 0.1341,0.6793 0.0029,0.9495c-0.1312,0.2701 -0.3931,0.4783 -0.7852,0.6244l-0.3372,-0.67c0.2078,-0.0859 0.345,-0.1715 0.4124,-0.2567c0.1026,-0.129 0.124,-0.2755 0.0638,-0.4391c-0.0609,-0.1657 -0.1511,-0.2652 -0.2705,-0.2994c-0.1201,-0.0335 -0.3286,0.0043 -0.6259,0.1137l-2.3752,0.8718z" clip-rule="evenodd" fill-rule="evenodd"/>
   <path fill="#025A92" d="m76.0682,269.12462l3.6005,-1.5405l0.3112,0.7267l-3.6009,1.5405l-0.3108,-0.7267z" clip-rule="evenodd" fill-rule="evenodd"/>
   <path fill="#025A92" d="m79.4632,267.05372l-3.493,1.7711l-0.3475,-0.6865l1.6071,-2.6122l-2.3324,1.1826l-0.3322,-0.6554l3.4933,-1.7707l0.3586,0.7074l-1.564,2.5631l2.2782,-1.1548l0.3319,0.6554z" clip-rule="evenodd" fill-rule="evenodd"/>
   <path fill="#025A92" d="m75.4824,262.85082l-0.555,0.3575l-0.9228,-1.4328l1.311,-0.8451c0.2245,0.0524 0.4733,0.1775 0.746,0.3761c0.273,0.1981 0.4968,0.433 0.6714,0.7039c0.2217,0.3436 0.3433,0.6907 0.3636,1.04c0.0203,0.349 -0.0624,0.6744 -0.2481,0.9766c-0.1853,0.3016 -0.4369,0.5543 -0.752,0.7581c-0.3432,0.2207 -0.6943,0.3454 -1.0536,0.3732c-0.3589,0.0282 -0.6986,-0.0506 -1.0194,-0.2359c-0.2455,-0.1408 -0.4694,-0.3682 -0.6722,-0.6826c-0.263,-0.4084 -0.3831,-0.783 -0.3596,-1.1234c0.0232,-0.3404 0.165,-0.6409 0.4245,-0.9014l0.5492,0.5806c-0.1315,0.1504 -0.2031,0.3197 -0.2142,0.5083c-0.0114,0.1881 0.0449,0.3781 0.1683,0.5695c0.1874,0.2909 0.428,0.4623 0.7231,0.515c0.2948,0.0528 0.6231,-0.0374 0.9852,-0.2708c0.3906,-0.252 0.628,-0.5275 0.7114,-0.8273c0.0838,-0.2994 0.0346,-0.5902 -0.1468,-0.8714c-0.0899,-0.1394 -0.2071,-0.2613 -0.3522,-0.3661c-0.1447,-0.1044 -0.2883,-0.1821 -0.4309,-0.2324l-0.4177,0.2691l0.4908,0.7613z" clip-rule="evenodd" fill-rule="evenodd"/>
   <path fill="#025A92" d="m27.762,269.69772l-0.8989,-4.4588c-0.1651,-0.524 -0.4256,-0.7132 -0.9499,-0.7132c-0.6833,0 -1.2346,0 -1.2346,0.7132l0.7342,4.4588l2.3492,0zm6.9906,36.8917l0,-11.1378l-3.6945,0l0,10.5896c0,0.5482 0.3565,0.5482 0.7966,0.5482l2.8979,0zm22.0774,-0.5482l0,-10.5896l-3.6975,0l0,11.1378l2.8977,0c0.4434,0 0.7998,0 0.7998,-0.5482zm3.8804,-13.7834l0.8151,-14.0356l-35.1629,0l0.8148,14.0356c0,0.6618 0.818,1.1982 1.831,1.1982l29.8682,0c1.0129,0 1.8338,-0.5364 1.8338,-1.1982zm1.1715,-18.611l0.2249,-1.2913l-36.3255,0l0.2246,1.2913l2.3402,0l0.2998,3.0924l30.5932,0l0.2997,-3.0924l2.3431,0zm0.5935,-3.9491l0.7371,-4.4588c0,-0.7132 -0.5543,-0.7132 -1.2375,-0.7132c-0.5243,0 -0.7881,0.1892 -0.9499,0.7132l-0.8989,4.4588l2.3492,0zm3.9944,-5.5074l-1.5732,11.0116l-3.3711,0l-0.1679,1.5373l3.539,0l-1.3844,17.7508c0,1.0368 -0.9231,1.8754 -2.0615,1.8754l-1.3876,0l0,0.9709l2.547,0l0,4.1591c0,0.7852 -1.1384,1.4232 -2.547,1.4232l0,4.8691c0,0.7253 -0.6533,1.3127 -1.4592,1.3127l-8.0155,0l0,-11.7641c0,-0.8269 -0.8387,-1.498 -1.8723,-1.498l-9.5439,0c-1.0336,0 -1.8727,0.6711 -1.8727,1.498l0,11.7641l-8.0153,0c-0.8062,0 -1.4595,-0.5874 -1.4595,-1.3127l0,-4.8691c-1.4082,0 -2.547,-0.638 -2.547,-1.4232l0,-4.1591l2.547,0l0,-0.9709l-1.3872,0c-1.1388,0 -2.0587,-0.8386 -2.0587,-1.8754l-1.3872,-17.7508l3.5386,0l-0.1676,-1.5373l-3.371,0l-1.5732,-11.0116c0.1739,-1.2347 2.7537,-1.8342 4.3629,-1.8342c2.0883,0 2.7149,0.318 3.7784,1.8342l1.0486,5.5074l26.6712,0l1.0489,-5.5074c1.0607,-1.5162 1.6898,-1.8342 3.7784,-1.8342c1.6093,0 4.1891,0.5995 4.363,1.8342z" clip-rule="evenodd" fill-rule="evenodd"/>
   <path fill="#025A92" d="m29.3021,275.20192l29.284,0l0,-1.5551l-29.284,0l0,1.5551z" clip-rule="evenodd" fill-rule="evenodd"/>
  </g>
 </g>
</svg>